PathFileType	4	(X/Y/Z)	OpenSim_Sub06_CSBaseline_Magnet.trc
DataRate	CameraRate	NumFrames	NumMarkers	Units	OrigDataRate	OrigDataStartFrame	OrigNumFrames
100	100	16	8	m	100	5308	8492
Frame#	Time	torso_imu_offset_imu	pelvis_imu_offset_imu	tibia_r_imu_offset_imu	femur_r_imu_offset_imu	tibia_l_imu_offset_imu	femur_l_imu_offset_imu	toes_r_imu_offset_imu	toes_l_imu_offset_imu
				X1	Y1	Z1	X2	Y2	Z2	X3	Y3	Z3	X4	Y4	Z4	X5	Y5	Z5	X6	Y6	Z6	X7	Y7	Z7	X8		Y8	Z8	

5308	53.07000000	-0.92527129	-0.23882146	0.05269512	-0.49613832	0.28583767	-0.73874742	-0.58647059	-0.55423692	-0.20219794	-0.81221996	-0.22768214	0.05857360	-0.31586197	0.76397709	0.12325491	-0.37521713	0.40179404	0.47085357	-0.58592746	-0.20485222	-0.48339809	-0.83357668	0.03907009	0.05152075
5309	53.08000000	-0.92312965	-0.24275341	0.05011842	-0.49652519	0.28380707	-0.73863313	-0.58141106	-0.56121499	-0.18725269	-0.80201902	-0.24250119	0.05887706	-0.29633024	0.77403434	0.11253582	-0.38867965	0.39691730	0.45234620	-0.58663079	-0.20176449	-0.48731829	-0.82998888	0.05627645	0.09405910
5310	53.09000000	-0.92690256	-0.23772803	0.05421276	-0.49610854	0.28207556	-0.74271898	-0.58294691	-0.56319998	-0.17824409	-0.79834166	-0.25113363	0.05961766	-0.26955248	0.79048884	0.10318904	-0.40791833	0.38870570	0.43983101	-0.58018961	-0.19471505	-0.49159871	-0.81523820	0.06956876	0.13886308
5311	53.10000000	-0.93014731	-0.23070546	0.05239980	-0.49831475	0.27212121	-0.74958526	-0.58496995	-0.57143651	-0.17123508	-0.80079446	-0.25969559	0.05685979	-0.25795420	0.79080931	0.08728323	-0.41953583	0.37535573	0.43498949	-0.58421096	-0.20248100	-0.49385327	-0.80690273	0.08682933	0.18340307
5312	53.11000000	-0.92564888	-0.22909670	0.04965806	-0.49183934	0.26330772	-0.74822308	-0.58324405	-0.57215539	-0.16370317	-0.79448368	-0.26217761	0.06974140	-0.23838180	0.80342870	0.07727068	-0.42816488	0.36658828	0.43334098	-0.57660483	-0.20433918	-0.49376647	-0.78793565	0.10139008	0.23334660
5313	53.12000000	-0.92827138	-0.21620436	0.05082391	-0.49323410	0.25882679	-0.74140788	-0.58109211	-0.57348410	-0.16946496	-0.79625749	-0.26782387	0.07584984	-0.23070466	0.80480547	0.06208268	-0.43188367	0.35021366	0.42226180	-0.57161336	-0.21436358	-0.49730309	-0.77502135	0.12941025	0.27026969
5314	53.13000000	-0.92383701	-0.21942909	0.05578028	-0.49148367	0.25514927	-0.76413109	-0.57696913	-0.57818866	-0.17823281	-0.78852648	-0.27579930	0.07610682	-0.21976874	0.80674048	0.04573189	-0.44406162	0.33324269	0.42376890	-0.56909709	-0.21511548	-0.50167603	-0.75656517	0.14991675	0.30611885
5315	53.14000000	-0.92998800	-0.21431376	0.05356252	-0.49065713	0.24480772	-0.76128476	-0.57091631	-0.57397277	-0.18930657	-0.78318856	-0.28815792	0.07856194	-0.21878061	0.80662473	0.03609786	-0.45328689	0.33526663	0.42066070	-0.57345973	-0.21871761	-0.50379731	-0.73665259	0.17178128	0.33633727
5316	53.15000000	-0.92855745	-0.20738819	0.05703400	-0.49087605	0.23991731	-0.76210496	-0.56614492	-0.57990427	-0.19860451	-0.78086294	-0.29691716	0.08552744	-0.21766005	0.81287396	0.03090857	-0.46176769	0.31717648	0.40947955	-0.56527935	-0.22277908	-0.50956277	-0.73007488	0.18633734	0.35080128
5317	53.16000000	-0.93237440	-0.20533225	0.06312241	-0.48697318	0.23791911	-0.76693474	-0.56585334	-0.57831586	-0.20150796	-0.77651000	-0.30465415	0.09235431	-0.21043531	0.81398727	0.03083027	-0.46587137	0.30506916	0.40656062	-0.57053851	-0.22686878	-0.51581639	-0.74749051	0.18741103	0.32040012
5318	53.17000000	-0.93488002	-0.19972305	0.07206137	-0.48183254	0.23217218	-0.77120125	-0.56435250	-0.58151891	-0.19915376	-0.77407243	-0.31539529	0.10668062	-0.21251048	0.80722680	0.02457932	-0.47203099	0.29274075	0.40456896	-0.56913720	-0.23084818	-0.52022885	-0.75652076	0.18305127	0.28313914
5319	53.18000000	-0.93731567	-0.18893462	0.07216014	-0.48598774	0.22554350	-0.77599630	-0.55575099	-0.58980092	-0.19718623	-0.77207666	-0.31981266	0.10988690	-0.20621913	0.80877130	0.02412495	-0.47777990	0.27494535	0.40244161	-0.57033596	-0.23477925	-0.52222130	-0.77460156	0.18306241	0.26000154
5320	53.19000000	-0.93779134	-0.18627657	0.07783651	-0.47606492	0.22022692	-0.77553404	-0.55487164	-0.59633321	-0.18618018	-0.76771079	-0.32775581	0.11471769	-0.20943286	0.81104845	0.01800168	-0.48638631	0.26619539	0.40232439	-0.57458107	-0.24107947	-0.52607957	-0.77520526	0.17884390	0.23543722
5321	53.20000000	-0.93765650	-0.18047025	0.08437094	-0.47008024	0.20334454	-0.78369047	-0.55290680	-0.60259876	-0.17710116	-0.76354110	-0.33586563	0.11487316	-0.21643425	0.81613299	0.01324492	-0.48893311	0.24708139	0.40250467	-0.57279104	-0.24294765	-0.53224096	-0.79136181	0.18094082	0.21082620
5322	53.21000000	-0.93822430	-0.17377374	0.09063694	-0.47552479	0.19863516	-0.78650217	-0.54865904	-0.60909028	-0.16520926	-0.75423048	-0.34670879	0.12380630	-0.22279912	0.80607978	0.00690674	-0.48786666	0.23718515	0.40303879	-0.57205062	-0.25102965	-0.53712377	-0.80603301	0.17512177	0.18218321
5323	53.22000000	-0.93402491	-0.17130968	0.09570203	-0.48047667	0.18637620	-0.78852443	-0.54623046	-0.61334371	-0.16461432	-0.76041708	-0.34668160	0.12917401	-0.23501667	0.79874146	0.00714531	-0.49616323	0.22729252	0.40040628	-0.57595408	-0.25518742	-0.53063348	-0.80824973	0.16859309	0.14693897
